<svg width="16" height="16" viewBox="0 0 16 16" fill="none" xmlns="http://www.w3.org/2000/svg">
<g opacity="0.3" clip-path="url(#clip0_1_2979)">
<path fill-rule="evenodd" clip-rule="evenodd" d="M7.99992 10.6668C9.47265 10.6668 10.6666 9.4729 10.6666 8.00016C10.6666 6.5274 9.47265 5.3335 7.99992 5.3335C6.52716 5.3335 5.33325 6.5274 5.33325 8.00016C5.33325 9.4729 6.52716 10.6668 7.99992 10.6668ZM7.99992 9.39796C7.22792 9.39796 6.60213 8.77216 6.60213 8.00016C6.60213 7.22816 7.22792 6.60237 7.99992 6.60237C8.77192 6.60237 9.39772 7.22816 9.39772 8.00016C9.39772 8.77216 8.77192 9.39796 7.99992 9.39796Z" fill="#98A2B3"/>
<path d="M4.66659 8.00016C4.66659 8.36836 4.36811 8.66683 3.99992 8.66683C3.63173 8.66683 3.33325 8.36836 3.33325 8.00016C3.33325 7.63196 3.63173 7.3335 3.99992 7.3335C4.36811 7.3335 4.66659 7.63196 4.66659 8.00016Z" fill="#98A2B3"/>
<path d="M11.9999 8.66683C12.3681 8.66683 12.6666 8.36836 12.6666 8.00016C12.6666 7.63196 12.3681 7.3335 11.9999 7.3335C11.6317 7.3335 11.3333 7.63196 11.3333 8.00016C11.3333 8.36836 11.6317 8.66683 11.9999 8.66683Z" fill="#98A2B3"/>
<path fill-rule="evenodd" clip-rule="evenodd" d="M14 3.3335C15.1046 3.3335 16 4.22893 16 5.3335V10.6668C16 11.7714 15.1046 12.6668 14 12.6668H2C0.895433 12.6668 0 11.7714 0 10.6668V5.3335C0 4.22893 0.895433 3.3335 2 3.3335H14ZM2.66667 4.66683H13.3333C13.3333 4.84192 13.3678 5.01531 13.4348 5.17708C13.5019 5.33884 13.6001 5.48583 13.7239 5.60964C13.8477 5.73345 13.9947 5.83166 14.1564 5.89867C14.3182 5.96568 14.4916 6.00016 14.6667 6.00016V10.0002C14.4916 10.0002 14.3182 10.0346 14.1564 10.1016C13.9947 10.1687 13.8477 10.2669 13.7239 10.3907C13.6001 10.5145 13.5019 10.6615 13.4348 10.8232C13.3678 10.985 13.3333 11.1584 13.3333 11.3335H2.66667C2.66667 11.1584 2.63218 10.985 2.56517 10.8232C2.49817 10.6615 2.39995 10.5145 2.27614 10.3907C2.15233 10.2669 2.00535 10.1687 1.84358 10.1016C1.68181 10.0346 1.50843 10.0002 1.33333 10.0002V6.00016C1.50843 6.00016 1.68181 5.96568 1.84358 5.89867C2.00535 5.83166 2.15233 5.73345 2.27614 5.60964C2.39995 5.48583 2.49817 5.33884 2.56517 5.17708C2.63218 5.01531 2.66667 4.84192 2.66667 4.66683Z" fill="#98A2B3"/>
</g>
<defs>
<clipPath id="clip0_1_2979">
<rect width="16" height="16" fill="white"/>
</clipPath>
</defs>
</svg>
