<svg width="42" height="42" viewBox="0 0 42 42" fill="none" xmlns="http://www.w3.org/2000/svg">
<path d="M24.8247 38.451C24.713 38.4635 4.21826 40.745 4.21826 25.6473V8.93144C4.21827 4.6947 7.05115 3.23027 9.77979 3.23027C12.5049 3.23044 15.3403 4.69494 15.3403 8.93144L15.3403 28.6072C15.3406 39.2584 24.7485 38.4576 24.8247 38.451ZM37.9019 26.2127C37.9019 29.0962 36.9566 31.3691 35.0933 32.9666C34.0132 33.8924 32.6185 34.5922 30.9487 35.0457C29.6256 35.405 28.1259 35.6121 26.4917 35.6609C23.717 35.744 21.5419 35.3478 21.4507 35.3309C21.2987 35.303 21.1899 35.1669 21.1899 35.0115C21.1899 35.0019 21.191 34.9921 21.1919 34.9822C21.2064 34.8146 21.3433 34.6863 21.5073 34.6863C24.0546 34.6862 26.1264 32.5606 26.1265 29.948L26.1499 26.2117V8.95098C26.1499 7.89479 26.3216 6.94955 26.6606 6.14238C26.9743 5.39583 27.4321 4.76189 28.021 4.25859C28.5543 3.80276 29.192 3.45631 29.9155 3.2293C30.5703 3.02392 31.2815 2.91973 32.0288 2.91973C32.7753 2.91975 33.4859 3.02361 34.1401 3.2293C34.8627 3.45633 35.4999 3.80274 36.0327 4.25859C36.6211 4.76187 37.0778 5.39591 37.3911 6.14238C37.73 6.94955 37.9018 7.89479 37.9019 8.95098V26.2127Z" fill="white"/>
</svg>
