<svg width="32" height="32" viewBox="0 0 32 32" fill="none" xmlns="http://www.w3.org/2000/svg">
<path d="M16.0011 6.66667C17.9107 6.66667 19.742 7.34095 21.0923 8.54119C22.4426 9.74141 23.2011 11.3693 23.2011 13.0667C23.2011 15.6921 23.7946 17.6581 24.5642 19.1039C25.5474 20.9511 26.039 21.8747 26.0117 22.0856C25.9798 22.3319 25.9391 22.3996 25.7367 22.5433C25.5633 22.6667 24.7005 22.6667 22.9747 22.6667H9.02746C7.30176 22.6667 6.43892 22.6667 6.26546 22.5433C6.06313 22.3996 6.02248 22.3319 5.99058 22.0856C5.96324 21.8747 6.45485 20.9511 7.43809 19.1039C8.20765 17.6581 8.8011 15.6921 8.8011 13.0667C8.8011 11.3693 9.55968 9.74141 10.9099 8.54119C12.2602 7.34095 14.0915 6.66667 16.0011 6.66667ZM16.0011 6.66667V4M12.4731 26.6667C13.4147 27.4977 14.6517 28.0021 16.0065 28.0021C17.3611 28.0021 18.598 27.4977 19.5398 26.6667" stroke="#98A2B3" stroke-width="2" stroke-linecap="round" stroke-linejoin="round"/>
</svg>
