<svg width="32" height="32" viewBox="0 0 32 32" fill="none" xmlns="http://www.w3.org/2000/svg">
<path d="M18.6667 16H10.6667V18.4C10.6667 19.8935 10.6667 20.6403 10.9573 21.2107C11.213 21.7124 11.6209 22.1204 12.1227 22.376C12.6931 22.6667 13.4399 22.6667 14.9333 22.6667H17.3333C18.5759 22.6667 19.1971 22.6667 19.6872 22.4637C20.3405 22.1931 20.8597 21.6739 21.1304 21.0205C21.3333 20.5304 21.3333 19.9092 21.3333 18.6667V16H18.6667ZM18.6667 16V12M13.3333 12V16M16 28V22.6667M16 28C9.37259 28 4 22.6275 4 16C4 9.37259 9.37259 4 16 4C16.2237 4 16.446 4.00612 16.6667 4.0182M16 28C22.1768 28 27.2635 23.3333 27.9268 17.3333" stroke="#D0D5DD" stroke-width="2" stroke-linecap="round" stroke-linejoin="round"/>
<path fill-rule="evenodd" clip-rule="evenodd" d="M13.3646 3.28147C15.7504 2.78578 18.3026 2.95401 20.7406 3.9094C20.9659 3.99768 21.188 4.09133 21.4057 4.19065C21.9076 4.42001 22.1287 5.01366 21.8998 5.51584C21.6704 6.01792 21.0768 6.23999 20.5746 6.01096C20.3902 5.92682 20.2023 5.84664 20.0111 5.7717C14.3548 3.55515 7.9728 6.34389 5.75624 12.0002C5.27719 13.2227 5.03243 14.479 4.9994 15.7199C4.97324 16.799 5.10627 17.9005 5.41639 18.9934C7.07498 24.8375 13.1572 28.2308 19.0014 26.5725C24.4476 25.027 27.7662 19.6388 26.85 14.1828C26.7585 13.6382 27.1267 13.123 27.6713 13.0315C28.2157 12.9403 28.7312 13.3073 28.8226 13.8518C29.2989 16.6881 28.8063 19.5075 27.559 21.9328C27.5428 21.9795 27.525 22.0264 27.5014 22.0715C24.4602 27.8621 17.4851 30.559 11.2543 28.1174C5.91782 26.0262 2.74075 20.7973 3.00917 15.3723C3.26659 9.94612 6.93516 5.04848 12.4496 3.48362C12.6824 3.41757 12.9165 3.35851 13.1498 3.30588C13.2218 3.2897 13.2937 3.28183 13.3646 3.28147Z" fill="#D0D5DD"/>
<circle cx="24.5" cy="9.50009" r="2.5" fill="#17B26A"/>
</svg>
