<svg width="32" height="32" viewBox="0 0 32 32" fill="none" xmlns="http://www.w3.org/2000/svg">
<path d="M21.3333 10.6666H26.6667C27.4031 10.6666 28 11.2636 28 12V26.6666L23.556 22.9746C23.3167 22.7757 23.0144 22.6666 22.7031 22.6666H12C11.2636 22.6666 10.6667 22.0697 10.6667 21.3333V17.3333M21.3333 10.6666V6.66665C21.3333 5.93027 20.7364 5.33331 20 5.33331H5.33333C4.59696 5.33331 4 5.93027 4 6.66665V21.3337L8.44401 17.641C8.6834 17.4422 8.98565 17.3333 9.29688 17.3333H10.6667M21.3333 10.6666V16C21.3333 16.7364 20.7364 17.3333 20 17.3333H10.6667" stroke="#101828" stroke-width="2" stroke-linecap="round" stroke-linejoin="round"/>
</svg>
