<svg width="32" height="32" viewBox="0 0 32 32" fill="none" xmlns="http://www.w3.org/2000/svg">
<g clip-path="url(#clip0_197_80)">
<path d="M32 0H0V32H32V0Z" fill="white" fill-opacity="0.01"/>
<path d="M29 22C29 25.3137 26.3137 28 23 28C19.6863 28 17 25.3137 17 22C17 18.6863 19.6863 16 23 16C26.3137 16 29 18.6863 29 22ZM21.3204 22C21.3204 22.9276 22.0724 23.6796 23 23.6796C23.9276 23.6796 24.6796 22.9276 24.6796 22C24.6796 21.0724 23.9276 20.3204 23 20.3204C22.0724 20.3204 21.3204 21.0724 21.3204 22Z" fill="white"/>
<path d="M25.25 22C25.25 23.2427 24.2427 24.25 23 24.25C21.7573 24.25 20.75 23.2427 20.75 22C20.75 20.7573 21.7573 19.75 23 19.75C24.2427 19.75 25.25 20.7573 25.25 22Z" stroke="#101828" stroke-width="2" stroke-linecap="round" stroke-linejoin="round"/>
<path d="M23.6785 15.295C23.5241 15.25 23.3494 15.25 23 15.25C22.6506 15.25 22.4759 15.25 22.3215 15.295C22.0956 15.361 21.8961 15.4961 21.751 15.6813C21.6518 15.8079 21.5869 15.9701 21.4572 16.2945C21.2706 16.7609 20.7529 17.001 20.2764 16.8423L19.8483 16.6996C19.5447 16.5984 19.3928 16.5478 19.244 16.5391C19.0253 16.5264 18.8077 16.5777 18.6178 16.6869C18.4885 16.7613 18.3753 16.8744 18.149 17.1008C17.9084 17.3413 17.7881 17.4616 17.7117 17.5989C17.5995 17.8006 17.552 18.032 17.5757 18.2616C17.5918 18.4179 17.655 18.5759 17.7814 18.8917C17.9792 19.3864 17.7889 19.9516 17.332 20.2257L17.1239 20.3507C16.8052 20.5418 16.6459 20.6375 16.5302 20.7691C16.4277 20.8856 16.3505 21.022 16.3033 21.1697C16.25 21.3367 16.25 21.5243 16.25 21.8997C16.25 22.3442 16.25 22.5663 16.321 22.7566C16.3837 22.9247 16.4857 23.0753 16.6184 23.1959C16.7687 23.3324 16.973 23.4142 17.3815 23.5776C17.799 23.7446 18.014 24.2081 17.8718 24.6347L17.7104 25.1188C17.5986 25.454 17.5428 25.6217 17.5377 25.7864C17.5316 25.9845 17.5779 26.1806 17.6719 26.355C17.7501 26.5001 17.8751 26.6251 18.125 26.875C18.3749 27.1249 18.4999 27.2498 18.6449 27.3281C18.8194 27.4221 19.0155 27.4685 19.2135 27.4623C19.3783 27.4572 19.5459 27.4013 19.8812 27.2896L20.2765 27.1578C20.7529 26.999 21.2707 27.2391 21.4572 27.7055C21.5869 28.0298 21.6518 28.1921 21.751 28.3187C21.8961 28.5039 22.0956 28.6391 22.3215 28.705C22.4759 28.75 22.6506 28.75 23 28.75C23.3494 28.75 23.5241 28.75 23.6785 28.705C23.9044 28.6391 24.1039 28.5039 24.249 28.3187C24.3482 28.1921 24.4131 28.0298 24.5428 27.7055C24.7294 27.2391 25.2471 26.9991 25.7235 27.158L26.1184 27.2897C26.4537 27.4014 26.6215 27.4573 26.7862 27.4624C26.9842 27.4685 27.1803 27.4222 27.3547 27.3282C27.4998 27.2499 27.6248 27.125 27.8747 26.8751C28.1246 26.6252 28.2496 26.5002 28.3278 26.3551C28.4218 26.1807 28.4681 25.9845 28.462 25.7865C28.4569 25.6218 28.4011 25.4541 28.2893 25.1188L28.1281 24.6351C27.9858 24.2083 28.2008 23.7447 28.6185 23.5776C29.027 23.4142 29.2313 23.3324 29.3816 23.1959C29.5144 23.0753 29.6163 22.9247 29.679 22.7566C29.75 22.5663 29.75 22.3442 29.75 21.8997C29.75 21.5243 29.75 21.3367 29.6967 21.1697C29.6495 21.022 29.5722 20.8856 29.4699 20.7691C29.3541 20.6375 29.1948 20.5418 28.8761 20.3507L28.6677 20.2256C28.2109 19.9515 28.0204 19.3864 28.2183 18.8917C28.3446 18.5758 28.4079 18.4179 28.424 18.2616C28.4477 18.0319 28.4002 17.8006 28.288 17.5989C28.2115 17.4616 28.0913 17.3413 27.8507 17.1007C27.6243 16.8744 27.5112 16.7612 27.3819 16.6869C27.192 16.5777 26.9744 16.5263 26.7557 16.539C26.6068 16.5477 26.455 16.5983 26.1513 16.6995L25.7236 16.8422C25.2471 17.001 24.7294 16.7609 24.5428 16.2945C24.4131 15.9701 24.3482 15.8079 24.249 15.6813C24.1039 15.4961 23.9044 15.361 23.6785 15.295Z" stroke="#101828" stroke-width="2" stroke-linecap="round" stroke-linejoin="round"/>
<path d="M23.0001 14.4998V11.6C23.0001 10.1065 23.0001 9.35979 22.7233 8.78936C22.4799 8.28759 22.0913 7.87964 21.6135 7.62399C21.0702 7.33334 18.613 7.33334 17.1906 7.33334L14.3253 7.33314M14.3253 7.33314L17.4999 10.6665M14.3253 7.33314L17.4999 3.9998" stroke="#101828" stroke-width="2" stroke-linecap="round" stroke-linejoin="round"/>
<path d="M7.5 21C9.433 21 11 22.567 11 24.5C11 26.433 9.433 28 7.5 28C5.567 28 4 26.433 4 24.5C4 22.567 5.567 21 7.5 21ZM7.5 4C9.433 4 11 5.567 11 7.5C11 9.433 9.433 11 7.5 11C5.567 11 4 9.433 4 7.5C4 5.567 5.567 4 7.5 4Z" fill="white"/>
<path d="M7.33333 10.6667C9.17428 10.6667 10.6667 9.17428 10.6667 7.33333C10.6667 5.49239 9.17428 4 7.33333 4C5.49239 4 4 5.49239 4 7.33333C4 9.17428 5.49239 10.6667 7.33333 10.6667ZM7.33333 10.6667V21.3333M7.33333 21.3333C5.49239 21.3333 4 22.8257 4 24.6667C4 26.5076 5.49239 28 7.33333 28C9.17428 28 10.6667 26.5076 10.6667 24.6667C10.6667 22.8257 9.17428 21.3333 7.33333 21.3333Z" stroke="#101828" stroke-width="2" stroke-linecap="round" stroke-linejoin="round"/>
</g>
<defs>
<clipPath id="clip0_197_80">
<rect width="32" height="32" fill="white"/>
</clipPath>
</defs>
</svg>
