<svg width="32" height="32" viewBox="0 0 32 32" fill="none" xmlns="http://www.w3.org/2000/svg">
<g clip-path="url(#clip0_197_105)">
<path d="M32 0H0V32H32V0Z" fill="white" fill-opacity="0.01"/>
<path d="M22.6666 8V13.3333V14C20.6966 14 18.9261 14.8545 17.7056 16.2132C16.6452 17.3937 16 18.9549 16 20.6667C16 21.0526 16.0328 21.4309 16.0957 21.7989C16.4386 23.8031 17.6762 25.5019 19.3827 26.4697C17.6077 27.0064 15.2517 27.3333 12.6666 27.3333C7.14376 27.3333 2.66663 25.8409 2.66663 24V18.6667V13.3333V8" stroke="#101828" stroke-width="2" stroke-linecap="round" stroke-linejoin="round"/>
<path d="M22.6666 8C22.6666 9.84094 18.1895 11.3333 12.6666 11.3333C7.14376 11.3333 2.66663 9.84094 2.66663 8C2.66663 6.15906 7.14376 4.66667 12.6666 4.66667C18.1895 4.66667 22.6666 6.15906 22.6666 8Z" stroke="#101828" stroke-width="2" stroke-linecap="round" stroke-linejoin="round"/>
<path d="M2.66663 18.6667C2.66663 20.5076 7.14376 22 12.6666 22C13.8713 22 15.0262 21.929 16.0957 21.7989" stroke="#101828" stroke-width="2" stroke-linecap="round" stroke-linejoin="round"/>
<path d="M2.66663 13.3333C2.66663 15.1743 7.14376 16.6667 12.6666 16.6667C14.5042 16.6667 16.226 16.5015 17.7056 16.2132" stroke="#101828" stroke-width="2" stroke-linecap="round" stroke-linejoin="round"/>
<path d="M16.25 21H29.75M16.25 21C16.25 24.728 19.2721 27.75 23 27.75M16.25 21C16.25 17.2721 19.2721 14.25 23 14.25M29.75 21C29.75 24.728 26.728 27.75 23 27.75M29.75 21C29.75 17.2721 26.728 14.25 23 14.25M23 27.75C17.5667 21.81 20.7361 16.275 23 14.25M23 27.75C28.4333 21.81 25.2639 16.275 23 14.25" stroke="#101828" stroke-width="2" stroke-linecap="round" stroke-linejoin="round"/>
</g>
<defs>
<clipPath id="clip0_197_105">
<rect width="32" height="32" fill="white"/>
</clipPath>
</defs>
</svg>
