<svg width="32" height="32" viewBox="0 0 32 32" fill="none" xmlns="http://www.w3.org/2000/svg">
<path d="M17.3333 17.3333L21.3333 10.6667L17.3333 17.3333ZM10.6667 10.6667H10.68H10.6667ZM16 8H16.0133H16ZM24 16H24.0133H24ZM8 16H8.01333H8ZM18.6667 20C18.6667 21.4728 17.4728 22.6667 16 22.6667C14.5272 22.6667 13.3333 21.4728 13.3333 20C13.3333 18.5272 14.5272 17.3333 16 17.3333C17.4728 17.3333 18.6667 18.5272 18.6667 20ZM28 16C28 22.6275 22.6275 28 16 28C9.37259 28 4 22.6275 4 16C4 9.37259 9.37259 4 16 4C22.6275 4 28 9.37259 28 16Z" fill="white"/>
<path d="M17.3333 17.3333L21.3333 10.6667M10.6667 10.6667H10.68M16 8H16.0133M24 16H24.0133M8 16H8.01333M18.6667 20C18.6667 21.4728 17.4728 22.6667 16 22.6667C14.5272 22.6667 13.3333 21.4728 13.3333 20C13.3333 18.5272 14.5272 17.3333 16 17.3333C17.4728 17.3333 18.6667 18.5272 18.6667 20ZM28 16C28 22.6275 22.6275 28 16 28C9.37259 28 4 22.6275 4 16C4 9.37259 9.37259 4 16 4C22.6275 4 28 9.37259 28 16Z" stroke="#101828" stroke-width="2" stroke-linecap="round" stroke-linejoin="round"/>
</svg>
