<svg width="32" height="32" viewBox="0 0 32 32" fill="none" xmlns="http://www.w3.org/2000/svg">
<path d="M26.6667 14.6657V9.59903C26.6667 8.10555 26.6667 7.35882 26.376 6.78839C26.1204 6.28662 25.7124 5.87867 25.2107 5.62301C24.6403 5.33237 23.8935 5.33237 22.4 5.33237H9.60004C8.10657 5.33237 7.35983 5.33237 6.7894 5.62301C6.28763 5.87867 5.87968 6.28662 5.62403 6.78839C5.33337 7.35882 5.33337 8.10555 5.33337 9.59903V22.3991C5.33337 23.8925 5.33337 24.6392 5.62403 25.2096C5.87968 25.7115 6.28763 26.1193 6.7894 26.3751C7.35983 26.6657 8.10657 26.6657 9.60004 26.6657H14.6667M12.1615 17.3332H19.8431M10.6667 21.3332L13.6944 13.007C14.405 11.053 14.7602 10.076 15.28 9.79958C15.7302 9.56017 16.2699 9.56017 16.72 9.79958C17.2399 10.076 17.5951 11.053 18.3056 13.007L19.8788 17.3332M26.6667 24.0051V22.6665C26.6667 21.1937 25.4728 19.9999 24 19.9999C22.5272 19.9999 21.3334 21.1937 21.3334 22.6665V24.0051M22 27.9999H26C26.6212 27.9999 26.9319 27.9999 27.177 27.8984C27.5036 27.7631 27.7632 27.5035 27.8986 27.1768C28 26.9317 28 26.6211 28 25.9999C28 25.3787 28 25.068 27.8986 24.8229C27.7632 24.4963 27.5036 24.2367 27.177 24.1013C26.9319 23.9999 26.6212 23.9999 26 23.9999H22C21.3788 23.9999 21.0682 23.9999 20.8231 24.1013C20.4964 24.2367 20.2368 24.4963 20.1015 24.8229C20 25.068 20 25.3787 20 25.9999C20 26.6211 20 26.9317 20.1015 27.1768C20.2368 27.5035 20.4964 27.7631 20.8231 27.8984C21.0682 27.9999 21.3788 27.9999 22 27.9999Z" stroke="#101828" stroke-width="2" stroke-linecap="round" stroke-linejoin="round"/>
</svg>
