<svg width="20" height="20" viewBox="0 0 20 20" fill="none" xmlns="http://www.w3.org/2000/svg">
<g clip-path="url(#clip0_197_17)">
<path d="M6.0579 6.05794L7.08329 7.08333M17.5 13.3333V6C17.5 5.06658 17.5 4.59987 17.3183 4.24335C17.1585 3.92974 16.9035 3.67477 16.59 3.51499C16.2335 3.33333 15.7667 3.33333 14.8333 3.33333H10.4166M2.49996 13.3333V10.4167M6.66663 4.58333C6.66663 5.73392 5.73388 6.66667 4.58329 6.66667C3.4327 6.66667 2.49996 5.73392 2.49996 4.58333C2.49996 3.43274 3.4327 2.5 4.58329 2.5C5.73388 2.5 6.66663 3.43274 6.66663 4.58333ZM18.3333 13.3333V14C18.3333 14.9334 18.3333 15.4002 18.1516 15.7567C17.9919 16.0703 17.7369 16.3252 17.4233 16.485C17.0668 16.6667 16.6 16.6667 15.6666 16.6667H4.33329C3.39988 16.6667 2.93316 16.6667 2.57664 16.485C2.26303 16.3252 2.00807 16.0703 1.84828 15.7567C1.66663 15.4002 1.66663 14.9334 1.66663 14V13.3333H6.94768C7.1515 13.3333 7.25341 13.3333 7.34932 13.3563C7.43435 13.3767 7.51563 13.4104 7.59019 13.4562C7.67429 13.5077 7.74636 13.5797 7.89048 13.7238L7.94277 13.7762C8.08689 13.9203 8.15896 13.9923 8.24306 14.0438C8.31762 14.0896 8.39888 14.1233 8.48396 14.1437C8.57988 14.1667 8.68179 14.1667 8.88554 14.1667H11.1144C11.3181 14.1667 11.42 14.1667 11.516 14.1437C11.601 14.1233 11.6823 14.0896 11.7569 14.0438C11.841 13.9923 11.913 13.9203 12.0571 13.7762L12.1095 13.7238C12.2535 13.5797 12.3256 13.5077 12.4097 13.4562C12.4843 13.4104 12.5655 13.3767 12.6506 13.3563C12.7465 13.3333 12.8485 13.3333 13.0522 13.3333H18.3333Z" stroke="#98A2B3" stroke-width="1.66667" stroke-linecap="round" stroke-linejoin="round"/>
</g>
<defs>
<clipPath id="clip0_197_17">
<rect width="20" height="20" fill="white"/>
</clipPath>
</defs>
</svg>
