<svg width="20" height="20" viewBox="0 0 20 20" fill="none" xmlns="http://www.w3.org/2000/svg">
<g clip-path="url(#clip0_197_30)">
<path d="M13.5357 4.79776C15.4883 6.75039 15.4883 9.91625 13.5357 11.8688M6.46461 11.8688C4.51198 9.91625 4.51198 6.75039 6.46461 4.79776M4.1074 14.2259C0.853034 10.9715 0.853034 5.69516 4.1074 2.4408M15.8929 2.4408C19.1473 5.69516 19.1473 10.9715 15.8929 14.2259M10.0001 10C10.9206 10 11.6668 9.25383 11.6668 8.33333C11.6668 7.41285 10.9206 6.66666 10.0001 6.66666C9.07971 6.66666 8.33346 7.41285 8.33346 8.33333C8.33346 9.25383 9.07971 10 10.0001 10ZM10.0001 10V17.5" stroke="#98A2B3" stroke-width="1.5" stroke-linecap="round" stroke-linejoin="round"/>
</g>
<defs>
<clipPath id="clip0_197_30">
<rect width="20" height="20" fill="white"/>
</clipPath>
</defs>
</svg>
